<svg xmlns="http://www.w3.org/2000/svg" width="256" height="256"><path fill-opacity=".016" d="M0 128.004v128.004l128.25-.254 128.25-.254.254-127.75L257.008 0H0v128.004m.485.496c0 70.4.119 99.053.265 63.672.146-35.38.146-92.98 0-128C.604 29.153.485 58.1.485 128.5" fill="#1976D2" fill-rule="evenodd"/><path fill-opacity=".167" d="M98 29.073c-15.675 6.02-37.725 14.404-49 18.631-22.115 8.291-21.569 8.06-20.837 8.792 1.156 1.156 91.516 36.662 93.337 36.676 1.1.008 24.725-8.144 52.5-18.117a52672.657 52672.657 0 0 1 51.893-18.617c.766-.267 1.216-.662 1-.877-.753-.751-98.25-37.561-99.318-37.497-.591.035-13.9 4.989-29.575 11.009m88 53.455c-29.425 10.647-53.95 19.543-54.5 19.768-.911.374 11.384 19.406 16.754 25.935l2.246 2.73 53-20.391c38.722-14.898 53.093-20.852 53.346-22.099.191-.939-.076-1.447-.591-1.128-.516.318-4.042-5.028-7.836-11.882-3.794-6.854-7.353-12.423-7.909-12.376-.555.046-25.085 8.795-54.51 19.443M11.648 68.25C3.709 82.097 1 87.382 1 89.018c0 1.301 1.535 2.414 5.25 3.809 2.887 1.084 24.7 9.441 48.473 18.572C78.496 120.529 98.383 128 98.917 128c.978 0 14.606-24.856 13.94-25.423C112.088 101.923 15.921 64 15.031 64c-.521 0-2.043 1.912-3.383 4.25M16 154.272v44.485l2.75 1.103c1.512.606 23.9 9.165 49.75 19.021 25.85 9.855 47.788 18.237 48.75 18.626 1.655.668 1.75-2.444 1.75-57.123v-57.831l-5.495 7.974c-5.716 8.293-8.286 10.441-12.505 10.447-1.836.003-67.079-23.88-83.25-30.474-1.651-.674-1.75 1.799-1.75 43.772m171.816-27.117c-22.376 8.86-41.356 15.852-42.177 15.537-.821-.315-5.239-5.888-9.816-12.383L127.5 118.5l-.258 59.409c-.142 32.674-.063 59.604.176 59.842.239.239 23.417-8.451 51.508-19.31L230 198.696v-43.848c0-24.116-.338-43.838-.75-43.825-.412.012-19.058 7.271-41.434 16.132" fill="#1976D2" fill-rule="evenodd"/><path fill-opacity=".493" d="M87 33.578a44966.581 44966.581 0 0 0-49.914 19.085l-9.414 3.62 46.251 18.358C99.361 84.739 120.779 93 121.518 93c1.392 0 100.76-35.496 103.217-36.871.879-.492-16.312-7.491-46.924-19.104-26.571-10.08-48.761-18.46-49.311-18.621-.55-.161-19.225 6.667-41.5 15.174m99 49.239c-29.975 10.757-54.659 19.67-54.853 19.807-.194.137 3.98 6.51 9.276 14.162l9.628 13.914 52.442-20.117c28.842-11.064 53.018-20.738 53.724-21.497.706-.759.823-1.125.26-.814-.562.311-4.091-5.022-7.842-11.851-3.75-6.829-7.115-12.584-7.477-12.789-.362-.205-25.183 8.429-55.158 19.185M7.608 75.952c-3.634 6.574-6.604 12.537-6.599 13.25.011 1.537 98.234 39.528 98.722 38.184.177-.487 3.199-6.061 6.715-12.386 3.516-6.325 6.091-11.793 5.723-12.15-.661-.643-96.511-38.85-97.461-38.85-.271 0-3.465 5.379-7.1 11.952M16 154.474v43.475l2.75 1.364c5.563 2.761 99.277 37.993 99.764 37.507.276-.277.387-25.856.244-56.843l-.258-56.34-5.306 7.677c-5.784 8.367-7.45 9.686-12.23 9.686-1.742 0-21.106-6.75-43.03-15s-40.328-15-40.898-15C16.337 111 16 125.151 16 154.474m198-37.426c-42.255 17.107-67.377 26.745-68.546 26.296-.721-.277-4.831-5.631-9.133-11.898-4.301-6.268-8.159-11.407-8.571-11.421-.412-.014-.75 26.573-.75 59.082 0 46.886.258 59.004 1.25 58.607.688-.275 22.175-8.591 47.75-18.479s48.188-18.688 50.25-19.556l3.75-1.577v-43.551c0-23.953-.338-43.511-.75-43.462-.412.049-7.275 2.73-15.25 5.959" fill="#1976D2" fill-rule="evenodd"/><path fill-opacity=".981" d="M77.714 37.453C51.432 47.51 29.75 55.917 29.533 56.134c-.218.218 20.386 8.631 45.785 18.697L121.5 93.133l50.381-18.09c45.419-16.308 54.972-19.916 53.001-20.013-.34-.016-21.94-8.128-48-18.026S128.6 19.043 127.5 19.087c-1.1.044-23.504 8.309-49.786 18.366M7.377 76.93.254 89.843l48.623 18.658c26.743 10.261 48.989 18.734 49.437 18.828 1.307.275 14.012-23.406 13.053-24.329-.656-.632-46.701-19.165-95.867-38.587-.55-.218-4.205 5.415-8.123 12.517M185 83.552c-29.425 10.649-53.602 19.382-53.727 19.405-.333.063 16.715 24.314 18.172 25.85 1.012 1.066 10.894-2.4 53.757-18.854l52.517-20.159-7.11-12.881c-4.376-7.93-7.686-12.851-8.609-12.802-.825.044-25.575 8.792-55 19.441M17 154.79v43.741l50.622 19.279c27.842 10.603 50.796 19.105 51.009 18.893.212-.213.27-25.545.127-56.295L118.5 124.5l-5.473 7.777c-8.646 12.283-6.152 12.431-46.637-2.765-18.639-6.996-37.377-14.012-41.64-15.591L17 111.05v43.74m170.1-26.69c-22.221 8.799-40.982 15.776-41.692 15.503-.71-.273-4.805-5.502-9.1-11.621l-7.808-11.126-.258 57.73c-.142 31.752-.082 57.908.134 58.124.216.215 23.057-8.359 50.758-19.054L229.5 198.21l.261-43.105c.206-34.17-.001-43.095-1-43.055-.694.028-19.441 7.25-41.661 16.05" fill="#1976D2" fill-rule="evenodd"/></svg>