<svg xmlns="http://www.w3.org/2000/svg" width="256" height="256"><path fill-opacity=".016" d="M0 128.004v128.004l128.25-.254 128.25-.254.254-127.75L257.008 0H0v128.004m.485.496c0 70.4.119 99.053.265 63.672.146-35.38.146-92.98 0-128C.604 29.153.485 58.1.485 128.5" fill="#1976D2" fill-rule="evenodd"/><path fill-opacity=".466" d="M99.913 14.656c-16.719 7.96-31.189 15.189-32.156 16.064C66.14 32.183 66 35.317 66 70.033c0 28.99-.289 37.948-1.25 38.7-.687.537-14.3 7.151-30.25 14.696s-29.787 14.43-30.75 15.3C2.138 140.185 2 143.517 2 181c0 37.51.137 40.808 1.75 42.2 3.545 3.059 59.073 32.8 61.24 32.8 2.25 0 60.489-31.349 61.611-33.163.357-.578 1.262-.397 2.248.448C132.358 226.293 187.9 256 190.016 256c2.163 0 57.694-29.745 61.234-32.8 1.613-1.392 1.75-4.693 1.75-42.282v-40.773l-2.394-1.822c-1.317-1.003-14.999-8.123-30.403-15.823l-28.009-14-.097-38.095c-.089-34.971-.241-38.218-1.847-39.596-1.593-1.366-54.613-28.664-58.344-30.039-.934-.344-14.181 5.406-31.993 13.886m8.891 10.667c-11.383 5.597-20.721 10.421-20.75 10.719-.03.298 2.386 1.738 5.369 3.201l5.423 2.66 11.327-6.051c6.23-3.328 15.559-8.324 20.731-11.103l9.403-5.052-4.403-2.303c-2.422-1.267-4.854-2.291-5.404-2.276-.55.015-10.313 4.607-21.696 10.205M134.5 37.602c-11 5.826-20.375 10.946-20.834 11.379-1.009.952 13.787 9.298 15.675 8.841C131.305 57.347 170 35.602 170 34.974c0-.435-14.465-7.986-15.267-7.969-.128.002-9.233 4.771-20.233 10.597M79.235 78.225l.265 30.023 20.5 11.333c11.275 6.233 20.838 11.352 21.25 11.376.412.024.745-13.344.739-29.707l-.011-29.75-7.577-4c-4.167-2.2-7.988-4.15-8.489-4.333-.502-.184-.912 2.404-.912 5.75 0 3.487-.437 6.083-1.025 6.083-.564 0-4.164-1.581-8-3.513L89 67.975l-.008-7.238-.009-7.237-5.006-2.649-5.006-2.649.264 30.023M157 59.344l-20.5 11.291-.265 29.682c-.146 16.326.079 29.667.5 29.648.421-.02 9.99-5.093 21.265-11.274l20.5-11.238.265-29.726c.146-16.35-.079-29.715-.5-29.7-.421.014-9.99 5.107-21.265 11.317M45.565 133.071c-11.514 5.481-21.096 10.126-21.292 10.323-.411.41 6.473 4.606 7.557 4.606.922 0 39.39-19.948 40.535-21.02.678-.635-4.303-4.15-5.565-3.927-.165.029-9.721 4.537-21.235 10.018m125 0c-11.514 5.481-21.096 10.126-21.292 10.323-.411.41 6.473 4.606 7.557 4.606.922 0 39.39-19.948 40.535-21.02.678-.635-4.303-4.15-5.565-3.927-.165.029-9.721 4.537-21.235 10.018M69.782 146.33c-10.844 5.649-19.98 10.535-20.302 10.856-.788.789 14.505 8.978 16.076 8.607.683-.161 10.294-5.234 21.359-11.272l20.117-10.98-7.266-3.721c-3.996-2.047-7.941-3.73-8.766-3.742-.825-.011-10.373 4.602-21.218 10.252m125 0c-10.844 5.649-19.979 10.534-20.299 10.854-.817.817 14.352 9.006 15.98 8.627.734-.171 10.387-5.252 21.452-11.29l20.117-10.98-7.266-3.721c-3.996-2.047-7.941-3.73-8.766-3.742-.825-.011-10.373 4.602-21.218 10.252M15.015 184.75l.014 29.75 14.696 8c8.082 4.4 17.751 9.672 21.485 11.716l6.79 3.716v-59.814l-8.25-4.523-8.25-4.522-.277 5.214c-.436 8.186-.331 8.138-8.694 4L25 174.561V160.19l-4.428-2.595c-2.436-1.427-4.686-2.595-5-2.595-.315 0-.565 13.387-.557 29.75m125 0 .014 29.75 14.696 8c8.082 4.4 17.751 9.672 21.485 11.716l6.79 3.716v-59.814l-8.25-4.523-8.25-4.522-.277 5.214c-.436 8.186-.331 8.138-8.694 4L150 174.561V160.19l-4.428-2.595c-2.436-1.427-4.686-2.595-5-2.595-.315 0-.565 13.387-.557 29.75M93 167.419l-20.5 11.333-.265 29.624c-.146 16.293.05 29.624.435 29.624.384 0 10.053-5.062 21.484-11.25l20.786-11.25.03-29.75c.016-16.363-.308-29.731-.72-29.707-.412.024-9.975 5.143-21.25 11.376m125-.036-20.5 11.314-.265 29.651c-.146 16.309.079 29.646.5 29.638.421-.008 9.99-5.081 21.265-11.274l20.5-11.26.265-29.726c.146-16.349-.079-29.711-.5-29.692-.421.019-9.99 5.126-21.265 11.349" fill="#1976D2" fill-rule="evenodd"/><path fill-opacity=".567" d="M98.5 15.564C82 23.526 67.938 30.793 67.25 31.712 66.302 32.979 66 42.472 66 71.043v37.661L34.929 123.55c-17.088 8.165-31.488 15.627-32 16.582-1.506 2.814-1.204 80.136.321 82.079.688.876 14.629 8.892 30.981 17.812 20.446 11.154 30.369 16.053 31.774 15.686 3.015-.788 59.316-31.692 60.549-33.236.872-1.091 1.217-1.09 2 .009 1.068 1.499 57.279 32.4 60.441 33.227 1.405.367 11.328-4.532 31.774-15.686 16.352-8.92 30.294-16.936 30.981-17.812.952-1.214 1.25-11.071 1.25-41.402 0-36.694-.138-39.946-1.763-41.559-.969-.963-14.686-8.275-30.482-16.25l-28.719-14.5-.032-36.5c-.017-20.075-.303-37.513-.634-38.75-.47-1.753-6.927-5.498-29.237-16.954C146.385 8.209 132.375 1.478 131 1.339c-1.555-.157-13.842 5.22-32.5 14.225m10.25 9.626C97.338 30.772 88 35.617 88 35.955c0 .338 2.399 1.913 5.331 3.499l5.332 2.884 21.313-11.325 21.313-11.325-4.395-2.299c-2.417-1.264-5.069-2.31-5.894-2.324-.825-.014-10.838 4.542-22.25 10.125m24.481 12.694c-11.147 5.951-20.507 11.059-20.799 11.351-.292.291 3.281 2.591 7.939 5.11l8.469 4.579 21.056-11.712c11.581-6.442 21.067-11.951 21.08-12.243.034-.751-14.751-7.976-16.243-7.937-.678.018-10.354 4.901-21.502 10.852m24.019 20.902L136 70.466v60.674l7.75-4.281c4.262-2.355 14.05-7.736 21.75-11.957l14-7.675.265-30.114c.145-16.562-.08-30.089-.5-30.06-.421.03-10.327 5.309-22.015 11.733M79.015 78.233l.014 30.267 14.696 8c8.082 4.4 17.751 9.672 21.485 11.716l6.79 3.716V71.358l-8.54-4.679c-4.696-2.573-8.746-4.679-9-4.679-.253 0-.46 2.907-.46 6.461v6.461l-7.25-3.471-7.25-3.471-.292-7.495-.292-7.494-4.958-2.512L79 47.966l.015 30.267M44.5 133.164c-11.55 5.504-21.136 10.142-21.302 10.307-.166.165 1.696 1.417 4.139 2.782l4.441 2.482 21.263-11.013 21.263-11.013-3.402-1.813c-1.871-.997-3.852-1.796-4.402-1.776-.55.02-10.45 4.54-22 10.044m125 0c-11.55 5.504-21.136 10.142-21.302 10.307-.166.165 1.696 1.417 4.139 2.782l4.441 2.482 21.263-11.013 21.263-11.013-3.402-1.813c-1.871-.997-3.852-1.796-4.402-1.776-.55.02-10.45 4.54-22 10.044m-99.931 12.881c-11.512 6.041-21.071 11.124-21.242 11.295-.171.171 3.503 2.401 8.165 4.955l8.477 4.644 20.265-11.093c11.146-6.102 20.66-11.455 21.142-11.896.658-.603-14.169-9.079-15.604-8.92-.15.017-9.691 4.973-21.203 11.015m125 0c-11.512 6.041-21.048 11.101-21.191 11.244-.143.142 3.523 2.377 8.147 4.965l8.407 4.706 20.284-11.104c11.156-6.107 20.678-11.465 21.16-11.906.658-.603-14.169-9.079-15.604-8.92-.15.017-9.691 4.973-21.203 11.015M15 184.536v30.318l21.302 11.573c11.716 6.365 21.616 11.573 22 11.573.384 0 .698-13.46.698-29.911v-29.911l-9.25-4.999-9.25-4.998-.296 6.409c-.162 3.526-.511 6.41-.775 6.41-.263 0-3.618-1.581-7.454-3.513L25 173.975l-.008-7.238-.009-7.237-4.991-2.641L15 154.217v30.319m125 0v30.318l21.302 11.573c11.716 6.365 21.616 11.573 22 11.573.384 0 .698-13.46.698-29.911v-29.911l-9.25-4.999-9.25-4.998-.296 6.409c-.162 3.526-.511 6.41-.775 6.41-.263 0-3.618-1.581-7.454-3.513L150 173.975l-.008-7.238-.009-7.237-4.991-2.641-4.992-2.642v30.319m-46.741-17.71L72.017 178.5l-.008 30.331L72 239.162l8.25-4.51c4.537-2.481 14.325-7.844 21.75-11.917l13.5-7.407.265-30.164c.145-16.59-.08-30.13-.5-30.088-.421.041-10.324 5.329-22.006 11.75m125.005-.027L197.028 178.5l-.014 30.302-.014 30.303 8.75-4.769c4.813-2.624 14.6-7.973 21.75-11.889l13-7.119.265-30.164c.145-16.59-.08-30.142-.5-30.115-.421.026-10.321 5.314-22.001 11.75" fill="#1976D2" fill-rule="evenodd"/><path fill-opacity=".966" d="M99.5 15.456C83 23.33 68.718 30.571 67.762 31.548c-1.58 1.615-1.762 5.247-2 39.787l-.262 38.01-30 14.279c-16.5 7.853-30.787 15.25-31.75 16.438C2.151 142.036 2 145.557 2 181c0 35.47.149 38.957 1.75 40.867 2.527 3.016 58.276 33.407 61.25 33.39 2.376-.013 57.554-29.639 60.983-32.741 1.413-1.279 1.821-1.285 3.073-.045 2.886 2.857 58.513 32.769 60.944 32.77 3 .002 58.749-30.366 61.25-33.364 1.6-1.919 1.75-5.41 1.75-40.853 0-36.567-.107-38.889-1.899-41.139-1.086-1.363-14.373-8.594-31-16.871L191 108.528V32.136l-2.75-1.948c-3.221-2.282-56.877-29.221-57.993-29.117C129.841 1.11 116 7.583 99.5 15.456m9.25 9.308C96.787 30.591 87 35.634 87 35.971 87 36.691 97.589 42 99.025 42c1.109 0 37.616-19.286 40.503-21.397 1.735-1.268 1.496-1.557-3.296-3.985-2.841-1.44-5.293-2.58-5.449-2.533-.156.047-10.07 4.853-22.033 10.679M134 37.12c-11.275 6.063-20.87 11.385-21.323 11.825-.842.82 1.851 2.664 11.004 7.539l5.182 2.759 21.068-11.799c11.588-6.49 21.063-12.057 21.055-12.372-.013-.529-15.41-9.131-16.154-9.024-.183.026-9.557 5.008-20.832 11.072m23.75 21.04L136 70.18v30.493c0 16.882.388 30.345.87 30.16.479-.183 10.369-5.508 21.978-11.833l21.108-11.5.022-30.75c.012-16.913-.091-30.719-.228-30.68-.137.038-10.037 5.478-22 12.09M78.235 78.236l.265 30.236 21.5 11.762c11.825 6.469 21.838 11.763 22.25 11.764.412.001.75-13.616.75-30.261V71.473l-8.865-4.736c-4.875-2.605-9.15-4.737-9.5-4.737-.349 0-.635 2.7-.635 6s-.235 6-.522 6c-.287 0-3.437-1.322-7-2.937L90 68.125V53.956l-4.696-2.978C82.722 49.34 80.015 48 79.29 48c-1.069 0-1.269 5.738-1.055 30.236m-33.221 54.375c-11.817 5.668-21.611 10.681-21.765 11.141-.153.459 1.78 1.835 4.295 3.057l4.572 2.222 20.192-10.568c11.106-5.812 20.583-10.958 21.061-11.434.491-.49-.814-1.706-3-2.795l-3.869-1.929-21.486 10.306m125 0c-11.817 5.668-21.611 10.681-21.765 11.141-.153.459 1.78 1.835 4.295 3.057l4.572 2.222 20.192-10.568c11.106-5.812 20.583-10.958 21.061-11.434.491-.49-.814-1.706-3-2.795l-3.869-1.929-21.486 10.306M69.316 145.828c-11.1 5.87-20.471 10.968-20.823 11.329-.353.362 3.214 2.759 7.926 5.327l8.566 4.67 21.554-11.71 21.554-11.709-3.025-1.84c-5.404-3.286-12.97-6.897-14.285-6.817-.706.043-10.366 4.881-21.467 10.75m125 0c-11.1 5.87-20.471 10.968-20.823 11.329-.353.362 3.214 2.759 7.926 5.327l8.566 4.67 21.554-11.71 21.554-11.709-3.025-1.84c-5.404-3.286-12.97-6.897-14.285-6.817-.706.043-10.366 4.881-21.467 10.75M15.235 184.575l.265 30.717 12.5 6.914a3386.476 3386.476 0 0 0 21.765 11.93l9.264 5.016-.264-30.717-.265-30.717-8.5-4.798c-4.675-2.639-8.837-4.826-9.25-4.859-.413-.034-.75 2.828-.75 6.359v6.42l-6.962-3.169-6.963-3.169-.287-7.501-.288-7.501-5.265-2.821-5.264-2.822.264 30.718m125 .017.265 30.734 12 6.635a3142.2 3142.2 0 0 0 21.765 11.913l9.764 5.278-.264-30.717-.265-30.717-8.5-4.798c-4.675-2.639-8.838-4.826-9.25-4.859-.412-.034-.75 2.828-.75 6.359v6.42l-6.962-3.169-6.963-3.169-.287-7.501-.288-7.501-5.265-2.821-5.264-2.822.264 30.735m-46.985-17.98L72 178.211v30.478c0 18.856.363 30.351.952 30.144.523-.183 10.418-5.508 21.988-11.833l21.037-11.5.011-30.25c.007-16.637-.326-30.247-.738-30.243-.412.004-10.312 5.226-22 11.605m125-.026L197 178.152v30.508c0 17.978.375 30.37.913 30.173.502-.183 10.394-5.508 21.983-11.833l21.069-11.5.018-30.25c.009-16.637-.321-30.246-.733-30.241-.412.006-10.312 5.215-22 11.577" fill="#1976D2" fill-rule="evenodd"/></svg>