<svg xmlns="http://www.w3.org/2000/svg" width="256" height="256"><path fill-opacity=".016" d="M0 128.004v128.004l128.25-.254 128.25-.254.254-127.75L257.008 0H0v128.004m.485.496c0 70.4.119 99.053.265 63.672.146-35.38.146-92.98 0-128C.604 29.153.485 58.1.485 128.5" fill="#1976D2" fill-rule="evenodd"/><path fill-opacity=".315" d="M111.814 1.078C84.288 5.116 62.183 19.67 51.94 40.5c-4.896 9.957-6.945 19.669-6.923 32.815.022 12.737 1.964 22.166 6.436 31.255 4.621 9.392 9.959 15.247 19.984 21.917 10.701 7.12 20.172 11.437 35.063 15.98 40.3 12.298 47.69 16.091 53.169 27.289 2.246 4.59 2.771 7.015 2.751 12.708-.062 18.173-8.759 28.832-27.016 33.112-5.281 1.237-10.561 1.529-22.464 1.238-14.877-.363-15.82-.51-21.5-3.347-7.111-3.552-7.155-3.682-7.322-21.811L84 178.812l-4.75.56c-2.612.308-9.475.819-15.25 1.135-5.775.316-12.194.822-14.265 1.124l-3.764.55.264 29.537.265 29.537 8 3.216c8.77 3.526 23.809 7.634 35.5 9.696 11.81 2.083 46.412 1.783 56.984-.495 18.683-4.025 32.548-11.239 44.643-23.228 6.514-6.457 8.934-9.733 12.184-16.5 12.366-25.741 8.676-60.049-8.38-77.931-12.621-13.231-26.222-20.437-58.931-31.223-26.208-8.641-30.119-10.483-36.152-17.028-5.921-6.424-7.701-11.9-7.147-21.988.973-17.733 10.137-25.43 33.289-27.958 11.964-1.306 25.833.025 30.883 2.963 4.395 2.558 5.505 6.759 5.571 21.086L163 74.23l5.25-.579c2.887-.318 9.75-.841 15.25-1.162 5.5-.321 11.688-.826 13.75-1.124l3.75-.541V15.027l-3.75-1.615c-6.442-2.775-20.466-7.403-27.25-8.993-17.234-4.037-43.253-5.532-58.186-3.341" fill="#1976D2" fill-rule="evenodd"/><path fill-opacity=".645" d="M114.983 1.026c-16.238 1.902-34.837 9.322-46.081 18.383-10.071 8.117-17.865 20.302-21.495 33.608-2.482 9.097-2.506 31.019-.044 39.903 6.734 24.296 25.26 39.207 62.231 50.09 7.648 2.251 17.281 5.257 21.406 6.68 24.002 8.278 33.032 18.478 31.72 35.828-1.047 13.851-8.213 23.898-20.271 28.421-18.041 6.767-53.443 3.955-57.319-4.553-.663-1.455-1.13-8.102-1.13-16.083v-13.604l-11.25.666c-6.187.366-14.738.948-19 1.294l-7.75.629V240.783l4.25 1.729c26.713 10.868 59.592 15.643 85.776 12.457 25.143-3.059 47.35-13.791 59.662-28.831 10.123-12.367 14.707-26.466 14.676-45.138-.042-25.354-6.784-39.884-24.678-53.191-11.709-8.706-25.242-14.957-48.686-22.486-29.493-9.472-35.781-13.031-41.524-23.504-2.525-4.604-2.921-6.395-2.946-13.319-.039-10.422 2.075-15.921 8.389-21.828 6.504-6.083 14.759-8.68 29.924-9.412 14.678-.708 24.157.876 28.514 4.765l3.143 2.806.328 14.227.328 14.226 11.672-.66c6.42-.364 14.934-.94 18.922-1.28l7.25-.62V15.368l-5.25-2.164C170.228 2.686 139.879-1.89 114.983 1.026" fill="#1976D2" fill-rule="evenodd"/><path fill-opacity=".967" d="M105.34 3.005C74.764 9.634 54.103 28.01 47.444 54.5c-1.179 4.688-1.755 10.798-1.745 18.5.048 38.264 18.338 56.8 70.969 71.926 37.257 10.707 47.242 19.507 46.132 40.653-.804 15.334-8.336 24.932-23.3 29.694-6.041 1.922-9.192 2.225-23 2.213-17.75-.016-25.706-1.601-30.103-5.999-2.312-2.311-2.397-2.919-2.397-17.085v-14.689l-6.75.607c-3.713.335-12.037.915-18.5 1.291l-11.75.683v58.561l8.094 3.121c16.514 6.368 32.722 9.787 51.927 10.952 38.98 2.365 67.344-6.483 86.255-26.909 11.585-12.513 16.737-26.984 16.707-46.929-.041-27.314-7.841-42.218-29.707-56.767-10.861-7.227-21.184-11.632-45.291-19.324-22.689-7.24-29.482-10.533-35.477-17.201-5.803-6.455-7.895-12.862-7.288-22.319.716-11.159 5.442-18.958 14.11-23.287 8.531-4.261 15.93-5.431 31.602-5.001 12.606.346 15.136.698 18.785 2.608 2.319 1.214 4.681 3.076 5.25 4.139.568 1.062 1.033 8.1 1.033 15.64v13.71l7.75-.622c4.262-.341 12.588-.922 18.5-1.291l10.75-.67v-55.56l-7.75-2.948C170.521 3.931 159.977 1.966 134.5 1.435c-17.255-.359-21.257-.143-29.16 1.57" fill="#1976D2" fill-rule="evenodd"/></svg>