<svg xmlns="http://www.w3.org/2000/svg" width="256" height="256"><path fill-opacity=".016" d="M0 128.004v128.004l128.25-.254 128.25-.254.254-127.75L257.008 0H0v128.004m.485.496c0 70.4.119 99.053.265 63.672.146-35.38.146-92.98 0-128C.604 29.153.485 58.1.485 128.5" fill="#1976D2" fill-rule="evenodd"/><path fill-opacity=".203" d="M108.845 1.43C76.664 7.116 53.952 26.317 46.93 53.774c-2.67 10.439-2.649 28.095.045 38.63 3.775 14.757 11.062 25.188 23.418 33.521 13.198 8.9 21.645 12.476 46.428 19.65 34.654 10.032 45.401 18.794 45.401 37.013 0 18.27-8.482 28.702-26.818 32.981-9.662 2.254-35.878 1.619-42.404-1.028-8.355-3.389-8.455-3.622-8.844-20.671l-.344-15.077-5.156.567c-2.836.313-9.656.83-15.156 1.151-5.5.321-11.687.826-13.75 1.124l-3.75.541V241.071l4.266 1.829c19.692 8.441 44.107 13.105 68.535 13.094 33.336-.015 58.261-9.151 75.033-27.503 10.831-11.85 16.065-25.341 16.897-43.549 1.248-27.328-7.259-45.379-28.213-59.865-11.101-7.674-21.641-12.313-46.917-20.65-24.819-8.187-29.228-10.22-34.962-16.12-5.964-6.136-7.997-11.383-7.9-20.384.198-18.338 9.978-27.503 32.119-30.101 11.554-1.355 26.731-.12 31.999 2.604 4.825 2.495 5.519 4.81 5.965 19.903.4 13.517.458 13.818 2.544 13.325 1.174-.277 8.209-.851 15.634-1.275 7.425-.424 13.838-.852 14.25-.95.412-.099 1.882-.235 3.266-.304l2.515-.125-.265-28.128-.266-28.127-8.252-3.321c-9.901-3.984-20.216-6.952-31.445-9.049-11.479-2.144-42.031-2.699-51.958-.945" fill="#1976D2" fill-rule="evenodd"/><path fill-opacity=".68" d="M114 1.016c-24.874 3.001-46.128 14.925-57.856 32.46-9.81 14.668-13.469 35.216-9.738 54.686 3.927 20.486 13.686 32.831 34.594 43.755 10.388 5.428 15.653 7.389 35.361 13.164 30.18 8.844 41.601 16.102 45.287 28.78 2.038 7.01 1.325 17.008-1.718 24.081-2.772 6.442-10.212 13.272-17.382 15.954-15.652 5.856-46.67 4.795-55.558-1.901-2.434-1.834-2.497-2.221-2.814-17.078l-.324-15.202-10.676.673c-5.872.37-14.388.951-18.926 1.29l-8.25.617v58.488l4.25 1.729c17.116 6.964 33.159 10.816 52.25 12.549 27.134 2.462 50.377-.952 68.5-10.063 26.713-13.428 39.174-33.721 39.298-63.998.112-27.176-8.008-42.508-30.319-57.25-10.971-7.248-19.715-10.936-46.785-19.732-24.588-7.989-30.371-11.109-35.93-19.385-4.224-6.287-5.603-11.679-4.983-19.483.713-8.971 4.807-16.672 11.118-20.909 8.236-5.53 14.004-6.741 32.101-6.741 14.604 0 16.401.198 20.596 2.265 2.548 1.255 5.111 3.393 5.75 4.797.684 1.5 1.154 7.856 1.154 15.597v13.064l12.75-.713c7.012-.392 15.45-1.005 18.75-1.362l6-.648.266-27.631.265-27.632-7.765-3.113c-10.79-4.325-22.233-7.613-33.332-9.579C149.349.67 123.892-.177 114 1.016" fill="#1976D2" fill-rule="evenodd"/><path fill-opacity=".969" d="M117.5 1.046C87.968 3.91 64.352 17.853 53.02 39.114 47.912 48.698 45.731 58.716 45.645 73c-.123 20.458 4.62 33.544 16.312 45 11.573 11.341 25.872 18.413 53.47 26.449 21.243 6.185 31.433 10.657 38.034 16.689 7.619 6.964 9.885 12.751 9.352 23.891-.759 15.883-7.791 25.094-22.947 30.058-6.641 2.176-9.039 2.409-24.366 2.376-15.335-.034-17.566-.263-22.782-2.334-8.621-3.424-9.218-4.805-9.218-21.33v-13.794l-3.5.085c-1.925.047-10.25.609-18.5 1.248l-15 1.162-.265 28.798-.266 28.798 5.271 2.331c21.619 9.561 54.714 14.708 80.29 12.487 26.801-2.328 47.27-11.209 61.663-26.755 12.848-13.879 19.08-34.659 16.764-55.904-2.422-22.211-10.361-34.998-29.796-47.985-10.702-7.152-21.041-11.566-45.176-19.287-10.717-3.429-21.639-7.318-24.271-8.643-6.253-3.149-12.184-8.579-15.442-14.14-3.524-6.012-4.321-17.526-1.749-25.268 2.356-7.095 9.181-13.929 16.73-16.754 16.18-6.054 45.086-4.648 50.681 2.466 1.865 2.37 2.066 3.992 2.066 16.629v14.003l6.25-.618c3.438-.34 11.762-.919 18.5-1.288L200 70.7V15.21l-8.75-3.464c-22.109-8.751-50.848-12.921-73.75-10.7" fill="#1976D2" fill-rule="evenodd"/></svg>